<?xml version="1.0" encoding="utf-8"?>
<svg version="1.1" xmlns:xlink="http://www.w3.org/1999/xlink" width="20px" height="9px" xmlns="http://www.w3.org/2000/svg">
  <g transform="matrix(1 0 0 1 -638 -589 )">
    <path d="M 19.7995991983968 0.927835051546416  C 19.9331997327989 1.03092783505152  20 1.14948453608244  20 1.28350515463915  C 20 1.41752577319586  19.9331997327989 1.53608247422678  19.7995991983968 1.63917525773203  L 10.4609218436874 8.84536082474226  C 10.3273213092853 8.94845360824737  10.1736806947228 9  10 9  C 9.82631930527721 9  9.67267869071473 8.94845360824737  9.53907815631264 8.84536082474226  L 0.200400801603185 1.63917525773203  C 0.0668002672010933 1.53608247422678  0 1.41752577319586  0 1.28350515463915  C 0 1.14948453608244  0.0668002672010933 1.03092783505152  0.200400801603185 0.927835051546416  L 1.20240480961921 0.154639175257736  C 1.33600534402139 0.0515463917526274  1.48964595858388 0  1.66332665330657 0  C 1.83700734802935 0  1.99064796259184 0.0515463917526274  2.12424849699403 0.154639175257736  L 10 6.23195876288655  L 17.875751503006 0.154639175257736  C 18.0093520374082 0.0515463917526274  18.1629926519706 0  18.3366733466934 0  C 18.5103540414161 0  18.6639946559786 0.0515463917526274  18.7975951903808 0.154639175257736  L 19.7995991983968 0.927835051546416  Z " fill-rule="nonzero" fill="#000000" stroke="none" transform="matrix(1 0 0 1 638 589 )" />
  </g>
</svg>