<?xml version="1.0" encoding="utf-8"?>
<svg version="1.1" xmlns:xlink="http://www.w3.org/1999/xlink" width="100px" height="30px" xmlns="http://www.w3.org/2000/svg">
  <defs>
    <mask fill="white" id="clip6">
      <path d="M 0 25  L 0 5  C 0 2.19999999999999  2.20000000000005 0  5 0  L 37 0  L 47.6666666666642 0  L 95 0  C 97.8 0  100 2.19999999999999  100 5  L 100 25  C 100 27.8  97.8 30  95 30  L 5 30  C 2.20000000000005 30  0 27.8  0 25  Z " fill-rule="evenodd" />
    </mask>
  </defs>
  <g transform="matrix(1 0 0 1 -825 -197 )">
    <path d="M 0 25  L 0 5  C 0 2.19999999999999  2.20000000000005 0  5 0  L 37 0  L 47.6666666666642 0  L 95 0  C 97.8 0  100 2.19999999999999  100 5  L 100 25  C 100 27.8  97.8 30  95 30  L 5 30  C 2.20000000000005 30  0 27.8  0 25  Z " fill-rule="nonzero" fill="#6699ff" stroke="none" transform="matrix(1 0 0 1 825 197 )" />
    <path d="M 0 25  L 0 5  C 0 2.19999999999999  2.20000000000005 0  5 0  L 37 0  L 47.6666666666642 0  L 95 0  C 97.8 0  100 2.19999999999999  100 5  L 100 25  C 100 27.8  97.8 30  95 30  L 5 30  C 2.20000000000005 30  0 27.8  0 25  Z " stroke-width="2" stroke="#cccccc" fill="none" transform="matrix(1 0 0 1 825 197 )" mask="url(#clip6)" />
  </g>
</svg>