<?xml version="1.0" encoding="utf-8"?>
<svg version="1.1" xmlns:xlink="http://www.w3.org/1999/xlink" width="115px" height="50px" xmlns="http://www.w3.org/2000/svg">
  <g transform="matrix(1 0 0 1 -883 -294 )">
    <path d="M 883 294  L 998 294  L 998 344  L 883 344  L 883 294  " fill-rule="nonzero" fill="#cccccc" stroke="none" />
    <path d="M 887 298  L 994 298  L 994 340  L 887 340  L 887 298  " fill-rule="nonzero" fill="#ffffff" stroke="none" />
    <path d="M 946.55 309  C 944.45 309  942.8 307.35  942.8 305.25  C 942.8 303.15  944.45 301.5  946.55 301.5  C 948.65 301.5  950.3 303.15  950.3 305.25  C 950.3 307.35  948.65 309  946.55 309  " fill-rule="nonzero" fill="#cccccc" stroke="none" />
    <path d="M 889 339  L 889 317.55  L 915 307.8  L 951.4 328.826086956522  L 972.2 313.65  L 993 328.826086956522  L 993 339  L 889 339  " fill-rule="nonzero" fill="#169bd5" stroke="none" />
  </g>
</svg>